<svg id="visual" viewBox="0 0 900 600" width="900" height="600" xmlns="http://www.w3.org/2000/svg" xmlns:xlink="http://www.w3.org/1999/xlink" version="1.1"><rect x="0" y="0" width="900" height="600" fill="#001220"></rect><path d="M0 439L13.7 431.3C27.3 423.7 54.7 408.3 82 404.5C109.3 400.7 136.7 408.3 163.8 417C191 425.7 218 435.3 245.2 438C272.3 440.7 299.7 436.3 327 431.3C354.3 426.3 381.7 420.7 409 417.5C436.3 414.3 463.7 413.7 491 410.8C518.3 408 545.7 403 573 402.7C600.3 402.3 627.7 406.7 654.8 409.3C682 412 709 413 736.2 411C763.3 409 790.7 404 818 402.7C845.3 401.3 872.7 403.7 886.3 404.8L900 406L900 601L886.3 601C872.7 601 845.3 601 818 601C790.7 601 763.3 601 736.2 601C709 601 682 601 654.8 601C627.7 601 600.3 601 573 601C545.7 601 518.3 601 491 601C463.7 601 436.3 601 409 601C381.7 601 354.3 601 327 601C299.7 601 272.3 601 245.2 601C218 601 191 601 163.8 601C136.7 601 109.3 601 82 601C54.7 601 27.3 601 13.7 601L0 601Z" fill="#fa7268"></path><path d="M0 451L13.7 449.2C27.3 447.3 54.7 443.7 82 442C109.3 440.3 136.7 440.7 163.8 441.7C191 442.7 218 444.3 245.2 447.3C272.3 450.3 299.7 454.7 327 452.7C354.3 450.7 381.7 442.3 409 443C436.3 443.7 463.7 453.3 491 456C518.3 458.7 545.7 454.3 573 454.8C600.3 455.3 627.7 460.7 654.8 461.7C682 462.7 709 459.3 736.2 459.7C763.3 460 790.7 464 818 462.8C845.3 461.7 872.7 455.3 886.3 452.2L900 449L900 601L886.3 601C872.7 601 845.3 601 818 601C790.7 601 763.3 601 736.2 601C709 601 682 601 654.8 601C627.7 601 600.3 601 573 601C545.7 601 518.3 601 491 601C463.7 601 436.3 601 409 601C381.7 601 354.3 601 327 601C299.7 601 272.3 601 245.2 601C218 601 191 601 163.8 601C136.7 601 109.3 601 82 601C54.7 601 27.3 601 13.7 601L0 601Z" fill="#f36567"></path><path d="M0 477L13.7 477.8C27.3 478.7 54.7 480.3 82 479C109.3 477.7 136.7 473.3 163.8 473.2C191 473 218 477 245.2 477.3C272.3 477.7 299.7 474.3 327 473C354.3 471.7 381.7 472.3 409 475.8C436.3 479.3 463.7 485.7 491 484.3C518.3 483 545.7 474 573 474.5C600.3 475 627.7 485 654.8 486.3C682 487.7 709 480.3 736.2 473.5C763.3 466.7 790.7 460.3 818 459.3C845.3 458.3 872.7 462.7 886.3 464.8L900 467L900 601L886.3 601C872.7 601 845.3 601 818 601C790.7 601 763.3 601 736.2 601C709 601 682 601 654.8 601C627.7 601 600.3 601 573 601C545.7 601 518.3 601 491 601C463.7 601 436.3 601 409 601C381.7 601 354.3 601 327 601C299.7 601 272.3 601 245.2 601C218 601 191 601 163.8 601C136.7 601 109.3 601 82 601C54.7 601 27.3 601 13.7 601L0 601Z" fill="#eb5967"></path><path d="M0 509L13.7 505.5C27.3 502 54.7 495 82 494.5C109.3 494 136.7 500 163.8 498.3C191 496.7 218 487.3 245.2 488.5C272.3 489.7 299.7 501.3 327 501.8C354.3 502.3 381.7 491.7 409 486.8C436.3 482 463.7 483 491 482C518.3 481 545.7 478 573 482.8C600.3 487.7 627.7 500.3 654.8 500.5C682 500.7 709 488.3 736.2 488.5C763.3 488.7 790.7 501.3 818 506.3C845.3 511.3 872.7 508.7 886.3 507.3L900 506L900 601L886.3 601C872.7 601 845.3 601 818 601C790.7 601 763.3 601 736.2 601C709 601 682 601 654.8 601C627.7 601 600.3 601 573 601C545.7 601 518.3 601 491 601C463.7 601 436.3 601 409 601C381.7 601 354.3 601 327 601C299.7 601 272.3 601 245.2 601C218 601 191 601 163.8 601C136.7 601 109.3 601 82 601C54.7 601 27.3 601 13.7 601L0 601Z" fill="#e34c67"></path><path d="M0 527L13.7 523.8C27.3 520.7 54.7 514.3 82 513.7C109.3 513 136.7 518 163.8 517.2C191 516.3 218 509.7 245.2 510.2C272.3 510.7 299.7 518.3 327 519.7C354.3 521 381.7 516 409 513.2C436.3 510.3 463.7 509.7 491 512.7C518.3 515.7 545.7 522.3 573 523C600.3 523.7 627.7 518.3 654.8 517.7C682 517 709 521 736.2 525.3C763.3 529.7 790.7 534.3 818 536.7C845.3 539 872.7 539 886.3 539L900 539L900 601L886.3 601C872.7 601 845.3 601 818 601C790.7 601 763.3 601 736.2 601C709 601 682 601 654.8 601C627.7 601 600.3 601 573 601C545.7 601 518.3 601 491 601C463.7 601 436.3 601 409 601C381.7 601 354.3 601 327 601C299.7 601 272.3 601 245.2 601C218 601 191 601 163.8 601C136.7 601 109.3 601 82 601C54.7 601 27.3 601 13.7 601L0 601Z" fill="#da3f67"></path><path d="M0 534L13.7 538.3C27.3 542.7 54.7 551.3 82 553.5C109.3 555.7 136.7 551.3 163.8 550C191 548.7 218 550.3 245.2 548C272.3 545.7 299.7 539.3 327 540.3C354.3 541.3 381.7 549.7 409 549.7C436.3 549.7 463.7 541.3 491 538.7C518.3 536 545.7 539 573 538C600.3 537 627.7 532 654.8 530.2C682 528.3 709 529.7 736.2 533.3C763.3 537 790.7 543 818 548C845.3 553 872.7 557 886.3 559L900 561L900 601L886.3 601C872.7 601 845.3 601 818 601C790.7 601 763.3 601 736.2 601C709 601 682 601 654.8 601C627.7 601 600.3 601 573 601C545.7 601 518.3 601 491 601C463.7 601 436.3 601 409 601C381.7 601 354.3 601 327 601C299.7 601 272.3 601 245.2 601C218 601 191 601 163.8 601C136.7 601 109.3 601 82 601C54.7 601 27.3 601 13.7 601L0 601Z" fill="#d03267"></path><path d="M0 562L13.7 565.5C27.3 569 54.7 576 82 578.7C109.3 581.3 136.7 579.7 163.8 578C191 576.3 218 574.7 245.2 572.7C272.3 570.7 299.7 568.3 327 569.7C354.3 571 381.7 576 409 576.2C436.3 576.3 463.7 571.7 491 568C518.3 564.3 545.7 561.7 573 562.8C600.3 564 627.7 569 654.8 570.5C682 572 709 570 736.2 567.5C763.3 565 790.7 562 818 562.2C845.3 562.3 872.7 565.7 886.3 567.3L900 569L900 601L886.3 601C872.7 601 845.3 601 818 601C790.7 601 763.3 601 736.2 601C709 601 682 601 654.8 601C627.7 601 600.3 601 573 601C545.7 601 518.3 601 491 601C463.7 601 436.3 601 409 601C381.7 601 354.3 601 327 601C299.7 601 272.3 601 245.2 601C218 601 191 601 163.8 601C136.7 601 109.3 601 82 601C54.7 601 27.3 601 13.7 601L0 601Z" fill="#c62368"></path></svg>